<?xml version="1.0" encoding="UTF-8"?>
<svg id="Layer_2" data-name="Layer 2" xmlns="http://www.w3.org/2000/svg" viewBox="0 0 349.38 213">
  <defs>
    <style>
      .cls-1 {
        fill: #fff;
        stroke-width: 0px;
      }
    </style>
  </defs>
  <g id="logo">
    <g id="logo_neutra" data-name="logo neutra">
      <polygon id="v_neutro" data-name="v neutro" class="cls-1" points="196.41 213 154.55 212.73 42.93 0 126.92 49.19 175.88 156.95 224.04 49.46 308.03 .27 196.41 213"/>
      <g id="d_enutro" data-name="d enutro">
        <path class="cls-1" d="m113.04,185.07c-34.15,2.24-68.45,4.38-102.65,5.68,0,0-10.39.42-10.39.42,13.89-25.88,28.52-51.76,46.46-75.09C152.8-24.09,284.09,44.6,345.51,182.9c0,0,3.86,8.88,3.86,8.88-5.55-.14-29.82-.93-35.95-1.09-17.78-.54-35.54-1.27-53.3-2.4-8.88-.61-17.77-1.22-26.65-2.1v-1.43c34.95-3.32,71.45-4.26,106.6-5.31,0,0-5.44,8.6-5.44,8.6-27.13-51.43-76.46-105.21-134.42-119.44-32.72-8.19-67.02,1.38-94.69,20.21-33.58,22.33-60.15,54.12-82.47,87.41-2.52,3.81-4.97,7.67-7.47,11.51l-5.22-9.03c16.96.55,34.45,1.38,51.33,2.31,17.11.9,34.22,1.89,51.34,2.97v1.07h0Z"/>
      </g>
    </g>
  </g>
</svg>